# xmcd
#
# Track frame offsets: 
#        150
#        17492
#        38519
#        55715
#        74050
#        93108
#        108600
#        130566
#        147557
#        162589
#        189600
#        226477
#
# Disc length: 3215 seconds
#
# Revision: 0
# Processed by: cddbd v1.5.2PL0 Copyright (c) Steve Scherf et al.
# Submitted via: ExactAudioCopy v0.99pb4
#
DISCID=a20c8d0c
DTITLE=Petrovich - The Best of Petrovich
DYEAR=2007
DGENRE=Blues
TTITLE0=I'am a Blusman
TTITLE1=Whoe Yeah
TTITLE2=Boom, Boom, Boom
TTITLE3=Strange Brew
TTITLE4=You Better Wathc Yourself
TTITLE5=Baby Please Don't Go
TTITLE6=Sugar Mama Blues
TTITLE7=Mystery Train
TTITLE8=Sitting On Top of the World
TTITLE9=Looking for Somebody
TTITLE10=Goodmorning Mr/Blues
TTITLE11=MississippiKid
EXTD=
EXTT0=
EXTT1=
EXTT2=
EXTT3=
EXTT4=
EXTT5=
EXTT6=
EXTT7=
EXTT8=
EXTT9=
EXTT10=
EXTT11=
PLAYORDER=
